<?xml version="1.0" encoding="utf-8"?>
<!-- Generator: Adobe Illustrator 19.0.0, SVG Export Plug-In . SVG Version: 6.00 Build 0)  -->
<svg version="1.1" id="Layer_2" xmlns="http://www.w3.org/2000/svg" xmlns:xlink="http://www.w3.org/1999/xlink" x="0px" y="0px"
	 viewBox="0 0 1920 1080" style="enable-background:new 0 0 1920 1080;" xml:space="preserve">
<style type="text/css">
	.st0{fill:#202020;}
</style>
<g id="XMLID_6_">
	<path id="XMLID_4_" class="st0" d="M0,408.8V0h1920v436l-32.7,8.3c-25.8,7.7-51.5,15.3-77.3,23c-38.8,11.5-77.6,23.1-116.4,34.6
		c-48.4,14.4-96.8,28.8-145.2,43.2c-54.6,16.3-109.2,32.5-163.9,48.8c-57.4,17.1-114.9,34.2-172.3,51.3
		c-56.8,16.9-113.7,33.8-170.5,50.7c-52.9,15.7-105.7,31.5-158.6,47.2c-45.5,13.5-91,27.1-136.4,40.6c-34.7,10.3-69.4,20.6-104.1,31
		c-33.4,9.9-67,21.1-101.4,21.4c-26.6,0.2-53.2-7.5-77.4-21.9L0,408.8z"/>
</g>
</svg>
