<?xml version="1.0" encoding="utf-8"?>
<!-- Generator: Adobe Illustrator 19.0.0, SVG Export Plug-In . SVG Version: 6.00 Build 0)  -->
<svg version="1.1" id="Layer_1" xmlns="http://www.w3.org/2000/svg" xmlns:xlink="http://www.w3.org/1999/xlink" x="0px" y="0px"
	 viewBox="0 0 24 24" style="enable-background:new 0 0 24 24;" xml:space="preserve">
<g id="XMLID_1_">
	<path id="XMLID_42_" d="M11.9,21.5c-0.3-0.2-0.6-0.5-0.9-0.7c-0.9-0.8-1.6-1.6-2.3-2.6c-0.4-0.7-0.8-1.4-1.1-2.1
		c-0.4-1.5-0.2-2.8,0.8-4.1c0.7-0.9,1.7-1.5,2.9-1.7c0.1,0,0.3,0,0.4-0.1c0.2,0,0.4,0,0.6,0c0.2,0,0.4,0,0.6,0.1
		c1.4,0.3,2.4,1.1,3.1,2.3c0.7,1.3,0.7,2.6,0.1,3.9c-0.4,1.1-1.1,2-1.8,2.9c-0.6,0.7-1.3,1.3-2,1.9c-0.1,0.1-0.1,0.1-0.2,0.1
		C12,21.5,12,21.5,11.9,21.5z M12,20.8C12,20.7,12.1,20.7,12,20.8c0.6-0.5,1.1-0.9,1.5-1.4c0.8-0.8,1.4-1.7,1.9-2.7
		c0.4-0.8,0.6-1.7,0.4-2.6c-0.3-1.7-1.9-3.1-3.7-3.1c-1,0-2,0.3-2.7,1c-0.8,0.7-1.2,1.7-1.3,2.8c0,0.7,0.2,1.4,0.5,2
		c0.5,1,1.2,1.9,1.9,2.8C11,19.9,11.5,20.3,12,20.8z"/>
	<path id="XMLID_36_" d="M9.1,14.8c0-1.6,1.3-2.9,2.9-2.9c1.6,0,2.9,1.3,2.9,2.9c0,1.6-1.3,2.9-2.9,2.9C10.4,17.7,9.1,16.4,9.1,14.8
		z M12,17c1.2,0,2.2-1,2.2-2.2c0-1.2-1-2.2-2.2-2.2c-1.2,0-2.2,1-2.2,2.2C9.8,16,10.8,17,12,17z"/>
</g>
</svg>
